PathFileType	4	(X/Y/Z)	C:/Users/opensim2020/Desktop/walking_exp_matlab/subject02_walking04_straight_02.trc																																																																																																																												
DataRate	CameraRate	NumFrames	NumMarkers	Units	OrigDataRate	OrigDataStartFrame	OrigNumFrames																																																																																																																								
100	100	6	42	mm	100	1606	220																																																																																																																								
Frame#	Time	LFHD			RFHD			LBHD			RBHD			C7			T10			CLAV			STRN			RBAK			LSHO			LUPA			LELB			LFRM			LWRA			LWRB			LFIN			RSHO			RUPA			RELB			RFRM			RWRA			RWRB			RFIN			LASI			RASI			LPSI			RPSI			LTHI			LKNE			LTIB			LANK			LHEE			LTOE			RTHI			RKNE			RTIB			RANK			RHEE			RTOE			*39			*40			*41		
		X1	Y1	Z1	X2	Y2	Z2	X3	Y3	Z3	X4	Y4	Z4	X5	Y5	Z5	X6	Y6	Z6	X7	Y7	Z7	X8	Y8	Z8	X9	Y9	Z9	X10	Y10	Z10	X11	Y11	Z11	X12	Y12	Z12	X13	Y13	Z13	X14	Y14	Z14	X15	Y15	Z15	X16	Y16	Z16	X17	Y17	Z17	X18	Y18	Z18	X19	Y19	Z19	X20	Y20	Z20	X21	Y21	Z21	X22	Y22	Z22	X23	Y23	Z23	X24	Y24	Z24	X25	Y25	Z25	X26	Y26	Z26	X27	Y27	Z27	X28	Y28	Z28	X29	Y29	Z29	X30	Y30	Z30	X31	Y31	Z31	X32	Y32	Z32	X33	Y33	Z33	X34	Y34	Z34	X35	Y35	Z35	X36	Y36	Z36	X37	Y37	Z37	X38	Y38	Z38	X39	Y39	Z39	X40	Y40	Z40	X41	Y41	Z41	X42	Y42	Z42
																																																																																																																															
111	1.1	-112.65386	1713.20032	-1544.75317	-133.72467	1692.4917	-1403.45239	-246.95317	1650.76575	-1572.09277	-280.54623	1630.32654	-1433.33289	-321.51843	1509.51221	-1504.76917	-380.33777	1232.47424	-1494.92798	-185.35786	1435.23254	-1506.54407	-136.62469	1264.72302	-1494.04858	-388.76477	1334.48291	-1444.9115	-241.58197	1482.18311	-1677.87854	-201.3609	1298.40161	-1778.32214	-142.51443	1171.65112	-1812.1853	-48.84699	1075.66187	-1823.12341	72.98702	1020.78577	-1788.00354	39.2457	990.51221	-1821.58533	97.64629	961.63745	-1828.21948	-260.11423	1472.09241	-1314.11755	-317.55905	1286.92236	-1235.87537	-320.48459	1140.22119	-1219.84253	-311.15402	1021.5235	-1195.60205	-276.6051	889.71271	-1205.62561	-327.56433	892.67609	-1181.33533	-298.28506	826.69049	-1171.81995	-152.27956	966.9408	-1625.03564	-141.06467	962.02075	-1368.09326	-359.6882	1012.89581	-1533.54004	-360.46799	1011.94427	-1419.43286	-272.74457	664.26007	-1665.38013	-345.73801	473.20782	-1632.57471	-451.23074	308.16214	-1632.43518	-505.85995	89.08898	-1595.35632	-548.52228	68.69002	-1545.9126	-355.99442	33.14859	-1598.87744	-159.49942	663.18817	-1286.34106	-87.72363	467.86005	-1325.0531	-61.15265	284.04657	-1311.41333	-0.59077	97.0554	-1336.54175	-7.5742	35.66811	-1394.89258	162.68903	89.0451	-1319.07056	-219.36818	1786.8136	-1467.19409	-2845.75488	1033.77734	3357.01807	NaN	NaN	NaN
112	1.11	-103.07786	1712.27136	-1542.90125	-124.1134	1691.57324	-1401.66309	-237.3481	1649.72876	-1570.29919	-270.91479	1629.2821	-1431.56897	-311.79446	1508.39417	-1503.0459	-370.28467	1231.27112	-1493.12634	-175.54845	1434.23901	-1504.85168	-126.62431	1263.78918	-1492.61938	-378.54089	1333.09021	-1443.16284	-231.87462	1481.07642	-1676.18408	-192.48705	1297.01245	-1776.46082	-133.99994	1170.07751	-1810.198	-40.08864	1073.93005	-1820.91638	82.05668	1019.32697	-1785.78491	47.82076	989.0177	-1819.40955	106.20168	960.12421	-1825.96741	-250.64265	1470.77942	-1312.36646	-307.92471	1285.63464	-1234.38525	-311.99896	1139.23853	-1218.37158	-303.2905	1020.38849	-1193.81543	-270.08582	888.22107	-1204.026	-320.68149	891.75	-1179.5321	-292.0957	825.52612	-1170.02368	-142.85852	965.65631	-1623.95081	-130.10199	961.08624	-1367.09094	-349.67865	1011.77722	-1531.2207	-349.96805	1010.99017	-1417.17993	-264.95166	663.59766	-1664.50134	-338.73398	472.94617	-1632.04028	-446.63699	309.49542	-1632.28455	-504.76468	91.23005	-1595.85181	-547.95654	71.81725	-1546.50073	-356.04321	33.02333	-1598.82263	-145.99632	662.91711	-1284.70178	-75.39526	467.03903	-1324.47388	-51.22427	282.72852	-1312.18909	6.86754	95.14737	-1338.63867	-1.01211	34.40744	-1397.34424	169.91505	85.19061	-1321.50964	-209.85489	1785.7616	-1465.34448	-2845.90625	1033.69507	3357.2312	NaN	NaN	NaN
113	1.12	-93.30612	1711.297	-1540.71179	-114.53271	1690.61108	-1399.67126	-227.70976	1648.71631	-1568.33325	-261.08627	1628.28687	-1429.47571	-301.98071	1507.25525	-1501.19836	-360.16092	1230.09473	-1491.27393	-165.64667	1433.32654	-1503.02991	-116.35477	1262.75745	-1490.97607	-368.39615	1331.66431	-1441.26318	-221.97423	1479.93726	-1674.21326	-183.53488	1295.51941	-1774.15955	-125.73621	1168.46277	-1808.02502	-32.17393	1072.23059	-1818.83777	89.74433	1017.67145	-1784.01953	56.01788	986.93713	-1816.92871	114.13047	958.31097	-1823.86755	-240.80614	1469.51843	-1310.32385	-298.30902	1284.5199	-1232.6394	-303.20041	1138.12207	-1216.93652	-294.70792	1019.30713	-1192.30786	-262.53772	887.10675	-1201.63831	-313.55298	890.95471	-1177.71716	-285.74069	824.51941	-1168.2887	-133.24475	964.46661	-1622.73596	-118.87936	960.35071	-1365.88538	-339.46155	1010.64105	-1528.76526	-338.9111	1009.88336	-1414.67053	-256.72668	662.95483	-1663.53906	-331.30859	472.76022	-1631.54126	-441.78513	311.09094	-1632.08118	-503.50049	93.48058	-1596.16943	-547.17212	75.24041	-1547.20984	-355.92908	32.909	-1598.97119	-131.82317	662.71442	-1282.89722	-63.7658	466.2926	-1324.20398	-41.96976	281.29672	-1312.88953	13.01879	93.12069	-1340.75171	4.05767	32.63248	-1399.70959	175.68745	80.8277	-1323.88269	-200.37196	1784.80298	-1463.43237	-2845.17603	1033.71094	3360.28882	NaN	NaN	NaN
114	1.13	-83.87708	1710.56897	-1538.88501	-104.89798	1689.76855	-1397.60974	-218.06236	1647.76782	-1566.35815	-251.55266	1627.11169	-1427.55872	-292.07281	1506.16602	-1499.25134	-349.77728	1228.83533	-1489.14209	-155.6757	1432.37805	-1501.11877	-106.11983	1262.03943	-1489.52722	-358.65265	1330.50525	-1439.72754	-212.43025	1479.0946	-1672.53882	-174.97441	1294.44312	-1772.17444	-117.75758	1166.76318	-1805.66858	-24.3573	1070.11853	-1816.30078	97.36517	1015.44452	-1781.85999	63.27299	984.71429	-1814.58777	121.42085	955.84692	-1821.50989	-230.93132	1468.37292	-1308.55896	-288.91937	1283.28455	-1230.96826	-294.30325	1137.23938	-1215.21814	-286.8927	1018.66577	-1190.31787	-255.11111	886.07471	-1199.82739	-306.05917	890.16681	-1175.8512	-278.49542	823.54669	-1166.13354	-123.34754	963.32373	-1621.34106	-107.43204	959.79407	-1364.49084	-328.9437	1009.43018	-1526.10571	-327.92142	1008.91205	-1412.15564	-248.09035	662.30719	-1662.45947	-323.61517	472.64886	-1630.85376	-436.64316	312.85175	-1631.67102	-502.28488	96.36903	-1596.64795	-545.85944	78.59261	-1547.38965	-355.81244	32.87057	-1599.16113	-116.86942	662.7533	-1281.37769	-52.2096	465.36743	-1323.30493	-33.59869	279.35272	-1313.41614	17.88688	90.70386	-1342.73584	7.6776	31.00319	-1401.89294	180.17026	76.19572	-1326.12292	-190.91753	1783.95715	-1461.43286	-2845.84546	1033.91626	3357.34033	NaN	NaN	NaN
115	1.14	-74.18668	1709.86292	-1536.75818	-95.31136	1688.83313	-1395.40442	-208.21133	1646.6781	-1563.91284	-241.87122	1626.02625	-1425.39502	-282.17581	1505.08667	-1497.12915	-339.34042	1227.56641	-1486.92456	-145.63583	1431.45825	-1499.16675	-95.71513	1261.24365	-1487.86963	-348.31039	1329.23193	-1437.6709	-202.5822	1478.04248	-1670.29321	-166.18665	1292.99768	-1769.53845	-110.09279	1165.05518	-1803.15027	-17.22041	1068.13501	-1814.0647	104.66979	1012.95886	-1779.62988	70.29104	981.96307	-1811.875	128.41118	952.84027	-1818.89502	-221.0486	1467.22888	-1306.61975	-279.84943	1282.3822	-1229.3512	-285.16437	1136.38245	-1213.40063	-278.08176	1017.61993	-1188.25183	-247.23772	884.77637	-1197.88013	-298.41461	889.40485	-1173.95203	-271.19022	822.65613	-1164.26428	-113.13792	962.24792	-1619.84875	-95.6845	959.40271	-1362.91736	-318.19339	1008.19269	-1523.35083	-316.69836	1007.93451	-1409.52612	-239.05458	661.66168	-1661.29651	-315.49893	472.57263	-1630.12683	-431.33759	314.84113	-1631.15308	-500.61832	99.21369	-1596.89685	-544.34674	82.42073	-1547.75208	-355.67038	32.86459	-1599.39832	-102.31937	662.61206	-1279.70227	-41.25048	464.16516	-1322.4165	-25.91285	277.53595	-1313.80298	21.64708	88.29925	-1344.44482	9.53853	30.00966	-1402.81152	183.59811	70.90029	-1328.33752	-181.44489	1782.86011	-1459.13831	NaN	NaN	NaN	NaN	NaN	NaN
116	1.15	-64.52308	1708.88989	-1534.18201	-85.67194	1687.90063	-1393.1991	-198.69516	1645.77466	-1561.97803	-232.08525	1624.88098	-1423.20679	-272.2319	1503.92529	-1494.80615	-328.71533	1226.20007	-1484.44067	-135.57364	1430.54077	-1497.14026	-85.82674	1260.24011	-1486.07153	-337.81082	1327.75977	-1435.39038	-193.03725	1477.11865	-1668.33105	-157.74419	1291.93372	-1767.26111	-102.67694	1163.28369	-1800.36316	-10.52122	1065.68323	-1811.29456	111.337	1009.78638	-1777.0835	76.33688	979.27875	-1809.52588	134.32954	949.71124	-1816.60925	-210.87766	1466.12524	-1304.48218	-269.59451	1281.62439	-1227.1239	-275.8461	1135.54138	-1211.39697	-269.81631	1016.86902	-1186.63318	-239.01282	883.90527	-1195.87952	-290.2417	888.70154	-1171.97058	-263.05899	821.85156	-1162.16431	-102.60949	961.28796	-1618.18018	-83.8448	959.16827	-1361.17908	-307.2233	1006.86902	-1520.38135	-305.15921	1006.87347	-1406.71204	-229.72166	661.05481	-1660.04602	-307.13837	472.6041	-1629.31702	-425.75763	317.07996	-1630.56946	-498.98703	102.54059	-1597.28064	-542.67963	86.76164	-1548.17725	-355.56747	32.87761	-1599.62988	-88.00178	662.4118	-1277.95959	-30.4466	462.89777	-1320.94238	-18.80482	275.49478	-1314.13306	25.04056	86.10472	-1345.18958	10.76128	29.7004	-1402.95569	187.0457	64.24254	-1330.72668	-171.97493	1781.92273	-1456.89124	NaN	NaN	NaN	NaN	NaN	NaN
